# 3ds Max Wavefront OBJ Exporter v0.97b - (c)2007 guruware
# File Created: 08.01.2015 11:43:02

mtllib torch.mtl

#
# object Grim_Bear_Torch
#

v  2.1514 145.0001 37.4432
v  5.9216 144.9983 43.1372
v  4.8695 139.7463 40.6656
v  -5.9217 144.9983 43.1372
v  -2.1514 145.0001 37.4432
v  -2.1514 142.2105 37.4432
v  -3.8362 142.2384 49.1592
v  -4.8695 139.7463 40.6656
v  3.8362 142.2384 49.1592
v  -3.8362 136.9382 46.6876
v  3.8362 136.9382 46.6876
v  2.1514 142.2105 37.4432
v  2.1514 142.2104 10.9549
v  -2.1514 145.0001 10.9549
v  2.1514 145.0001 10.9549
v  7.3019 169.6608 52.0063
v  3.6509 168.0241 58.1145
v  3.6509 171.2975 45.8982
v  -3.6510 168.0241 58.1145
v  -7.3019 169.6608 52.0063
v  1.7658 166.6169 47.9291
v  2.6194 170.8350 47.6240
v  5.2388 169.6608 52.0063
v  -1.7658 166.6169 47.9291
v  -2.6194 170.8350 47.6240
v  -3.5316 165.8253 50.8834
v  -5.2388 169.6608 52.0063
v  -1.7658 165.0338 53.8376
v  -2.6194 168.4865 56.3887
v  1.7658 165.0338 53.8376
v  2.6194 168.4865 56.3887
v  3.5316 165.8253 50.8834
v  1.9782 111.3767 36.2768
v  0.9891 111.8201 34.6220
v  -0.9891 111.8201 34.6220
v  -1.9782 111.3767 36.2768
v  -0.9891 110.9333 37.9316
v  0.9891 110.9333 37.9316
v  4.8679 173.8823 48.7730
v  4.8679 175.8047 49.2881
v  6.0849 173.3367 50.8091
v  -1.2170 174.4278 46.7370
v  -1.2170 176.3502 47.2521
v  1.2170 174.4278 46.7370
v  -6.0849 173.3367 50.8091
v  -6.0849 175.2591 51.3242
v  -4.8679 173.8823 48.7730
v  -4.8679 171.7000 56.9172
v  -4.8679 173.6224 57.4323
v  -6.0849 172.2456 54.8812
v  1.2170 171.1545 58.9533
v  1.2170 173.0769 59.4684
v  -1.2170 171.1545 58.9533
v  6.0849 172.2456 54.8812
v  6.0849 174.1680 55.3963
v  4.8679 171.7000 56.9172
v  3.6509 174.4278 46.7370
v  3.6509 176.3502 47.2521
v  7.3019 174.7136 53.3602
v  7.3019 172.7911 52.8451
v  6.0849 175.2591 51.3242
v  -3.6510 174.4278 46.7370
v  -3.6510 176.3502 47.2521
v  1.2170 176.3502 47.2521
v  -7.3019 172.7911 52.8451
v  -7.3019 174.7136 53.3602
v  -4.8679 175.8047 49.2881
v  -3.6510 171.1545 58.9533
v  -3.6510 173.0769 59.4684
v  -6.0849 174.1680 55.3963
v  3.6509 171.1545 58.9533
v  3.6509 173.0769 59.4684
v  -1.2170 173.0769 59.4684
v  4.8679 173.6224 57.4323
v  3.6509 180.6885 48.4145
v  4.8679 170.7519 47.9342
v  6.0849 179.5974 52.4866
v  -3.6510 180.6885 48.4145
v  -1.2170 171.2975 45.8982
v  1.2170 180.6885 48.4145
v  -7.3019 179.0518 54.5227
v  -6.0849 170.2063 49.9703
v  -3.6510 171.2975 45.8982
v  -4.8679 180.1430 50.4506
v  -3.6510 177.4152 60.6308
v  -4.8679 168.5697 56.0785
v  -6.0849 178.5063 56.5587
v  3.6509 177.4152 60.6308
v  1.2170 168.0241 58.1145
v  -1.2170 177.4152 60.6308
v  7.3019 179.0519 54.5227
v  6.0849 169.1152 54.0424
v  4.8679 177.9607 58.5948
v  4.8679 180.1430 50.4506
v  4.8166 183.8057 47.1596
v  6.4221 183.0859 49.8457
v  -1.2170 180.6885 48.4145
v  -4.8166 183.8057 47.1596
v  -1.6055 183.8057 47.1596
v  -6.0849 179.5974 52.4866
v  -9.6332 181.6465 55.2179
v  -8.0277 182.3662 52.5318
v  -4.8679 177.9607 58.5948
v  -4.8166 179.4872 63.2762
v  -6.4222 180.2070 60.5901
v  1.2170 177.4152 60.6308
v  4.8166 179.4872 63.2762
v  1.6055 179.4872 63.2762
v  6.0849 178.5063 56.5587
v  9.6332 181.6465 55.2179
v  8.0277 180.9267 57.9040
v  8.0277 182.3662 52.5318
v  1.6055 183.8057 47.1596
v  -6.4222 183.0859 49.8457
v  -8.0277 180.9267 57.9040
v  -1.6055 179.4872 63.2762
v  6.4221 180.2070 60.5901
v  -2.1514 142.2104 10.9549
v  6.0849 170.2063 49.9703
v  1.2170 171.2975 45.8982
v  -4.8679 170.7519 47.9342
v  -6.0849 169.1152 54.0424
v  -1.2170 168.0241 58.1145
v  4.8679 168.5697 56.0785
# 124 vertices

vn 0.9497 0.0278 -0.3118
vn 0.8302 0.0924 -0.5497
vn 0.8158 0.0700 -0.5740
vn -0.8140 0.0754 -0.5759
vn -0.9576 -0.0000 -0.2883
vn -0.9397 0.0305 -0.3407
vn -0.9721 -0.1649 0.1666
vn -0.9394 -0.2807 0.1967
vn -0.9674 -0.1859 0.1722
vn -0.0000 -0.4226 0.9063
vn 0.9705 -0.1810 0.1591
vn 0.9538 -0.1269 0.2722
vn 0.9687 -0.1716 0.1794
vn -0.0000 0.9091 0.4166
vn -0.0000 0.9708 0.2398
vn 0.9199 -0.0000 -0.3921
vn 1.0000 -0.0000 -0.0000
vn -1.0000 0.0000 0.0000
vn -0.0000 1.0000 0.0002
vn 0.0000 1.0000 -0.0000
vn 0.0000 -0.9659 -0.2588
vn -0.0000 -0.9659 -0.2588
vn 0.4862 0.0084 -0.8738
vn 0.4654 -0.1572 -0.8710
vn 0.9195 -0.3810 -0.0967
vn -0.4862 0.0084 -0.8738
vn -0.4654 -0.1572 -0.8710
vn -0.9738 -0.2187 -0.0629
vn -0.9195 -0.3810 -0.0967
vn -0.4875 -0.4465 0.7503
vn -0.4542 -0.5993 0.6592
vn 0.4875 -0.4465 0.7503
vn 0.4542 -0.5993 0.6592
vn 0.9738 -0.2187 -0.0629
vn 0.9996 -0.0266 -0.0072
vn 0.4998 0.1977 -0.8433
vn -0.4998 0.1977 -0.8433
vn -0.9996 -0.0266 -0.0072
vn -0.4998 -0.2509 0.8290
vn 0.4998 -0.2509 0.8290
vn 0.8660 0.1294 -0.4830
vn -0.0000 0.2588 -0.9659
vn -0.8660 0.1294 -0.4830
vn -0.8660 -0.1294 0.4830
vn -0.0000 -0.2588 0.9659
vn 0.8660 -0.1294 0.4830
vn 0.6547 0.1956 -0.7302
vn 0.9820 0.0489 -0.1825
vn -0.6547 0.1956 -0.7302
vn -0.9820 0.0489 -0.1825
vn -0.3273 -0.2446 0.9127
vn 0.3273 -0.2446 0.9127
vn 0.8122 -0.2138 -0.5428
vn 0.8249 -0.1710 -0.5389
vn -0.0000 -0.0924 -0.9957
vn -0.0000 -0.0478 -0.9989
vn -0.8122 -0.2138 -0.5428
vn -0.8249 -0.1710 -0.5389
vn -0.8122 -0.4565 0.3632
vn -0.8249 -0.4175 0.3812
vn -0.0000 -0.5779 0.8161
vn -0.0000 -0.5408 0.8412
vn 0.8122 -0.4565 0.3632
vn 0.8249 -0.4175 0.3812
vn 0.6923 -0.4769 -0.5416
vn -0.0000 -0.3735 -0.9276
vn -0.6923 -0.4769 -0.5416
vn -0.6923 -0.6838 0.2306
vn -0.0000 -0.7873 0.6166
vn 0.6923 -0.6838 0.2306
vn -0.8011 0.1158 -0.5872
vn -0.9881 -0.0649 0.1393
vn 0.9726 -0.2242 0.0623
# 73 vertex normals

vt 0.8225 0.3597 0.0000
vt 0.8967 0.2330 0.0000
vt 0.9981 0.2288 0.0000
vt 0.6562 0.2411 0.0000
vt 0.7340 0.3597 0.0000
vt 0.6630 0.3597 0.0000
vt 0.6998 0.1219 0.0000
vt 0.5548 0.2436 0.0000
vt 0.8452 0.1171 0.0000
vt 0.6437 0.0371 0.0000
vt 0.8956 0.0287 0.0000
vt 0.8934 0.3597 0.0000
vt 0.8934 0.9709 0.0000
vt 0.7340 0.9709 0.0000
vt 0.8225 0.9709 0.0000
vt 0.3995 0.7461 0.0000
vt 0.5341 0.7461 0.0000
vt 0.3322 0.8627 0.0000
vt 0.6014 0.8627 0.0000
vt 0.5341 0.9792 0.0000
vt 0.2725 0.9079 0.0000
vt 0.2725 0.9798 0.0000
vt 0.2210 0.9798 0.0000
vt 0.3240 0.9080 0.0000
vt 0.3240 0.9799 0.0000
vt 0.0552 0.9080 0.0000
vt 0.0552 0.9799 0.0000
vt 0.0020 0.9799 0.0000
vt 0.1116 0.9079 0.0000
vt 0.1116 0.9798 0.0000
vt 0.1680 0.9079 0.0000
vt 0.1680 0.9798 0.0000
vt 0.2210 0.9079 0.0000
vt 0.2210 0.0132 0.0000
vt 0.2725 0.0132 0.0000
vt 0.3240 0.0132 0.0000
vt 0.0020 0.0132 0.0000
vt 0.0552 0.0132 0.0000
vt 0.1116 0.0132 0.0000
vt 0.1680 0.0132 0.0000
vt 0.6368 0.3883 0.0000
vt 0.6368 0.4659 0.0000
vt 0.5480 0.3883 0.0000
vt 0.6365 0.3883 0.0000
vt 0.6365 0.4659 0.0000
vt 0.5477 0.3883 0.0000
vt 0.6374 0.3883 0.0000
vt 0.6374 0.4659 0.0000
vt 0.5485 0.3883 0.0000
vt 0.6364 0.3883 0.0000
vt 0.6364 0.4659 0.0000
vt 0.5476 0.3883 0.0000
vt 0.6369 0.3883 0.0000
vt 0.6369 0.4659 0.0000
vt 0.5483 0.3883 0.0000
vt 0.6367 0.3883 0.0000
vt 0.6367 0.4659 0.0000
vt 0.5481 0.3883 0.0000
vt 0.4519 0.3878 0.0000
vt 0.4519 0.4660 0.0000
vt 0.3561 0.3883 0.0000
vt 0.4521 0.4670 0.0000
vt 0.4521 0.3888 0.0000
vt 0.5480 0.4659 0.0000
vt 0.4526 0.3871 0.0000
vt 0.4526 0.4653 0.0000
vt 0.3568 0.3883 0.0000
vt 0.5477 0.4659 0.0000
vt 0.4517 0.3873 0.0000
vt 0.4517 0.4654 0.0000
vt 0.3559 0.3883 0.0000
vt 0.5485 0.4659 0.0000
vt 0.4525 0.3871 0.0000
vt 0.4525 0.4654 0.0000
vt 0.3566 0.3883 0.0000
vt 0.5476 0.4659 0.0000
vt 0.4502 0.3883 0.0000
vt 0.4502 0.4659 0.0000
vt 0.3560 0.3883 0.0000
vt 0.5483 0.4659 0.0000
vt 0.5481 0.4659 0.0000
vt 0.4519 0.6193 0.0000
vt 0.3561 0.4659 0.0000
vt 0.3561 0.2885 0.0000
vt 0.4521 0.2885 0.0000
vt 0.5480 0.6193 0.0000
vt 0.4526 0.6193 0.0000
vt 0.3568 0.4659 0.0000
vt 0.3568 0.2885 0.0000
vt 0.4519 0.2885 0.0000
vt 0.5477 0.6193 0.0000
vt 0.4517 0.6193 0.0000
vt 0.3559 0.4659 0.0000
vt 0.3559 0.2885 0.0000
vt 0.4526 0.2885 0.0000
vt 0.5485 0.6193 0.0000
vt 0.4525 0.6193 0.0000
vt 0.3566 0.4659 0.0000
vt 0.3566 0.2885 0.0000
vt 0.4517 0.2885 0.0000
vt 0.5476 0.6193 0.0000
vt 0.4502 0.6193 0.0000
vt 0.3560 0.4659 0.0000
vt 0.3560 0.2885 0.0000
vt 0.4525 0.2885 0.0000
vt 0.5483 0.6193 0.0000
vt 0.4521 0.6193 0.0000
vt 0.4502 0.2885 0.0000
vt 0.5481 0.6193 0.0000
vt 0.3561 0.6193 0.0000
vt 0.4519 0.7338 0.0000
vt 0.3561 0.7338 0.0000
vt 0.3568 0.6193 0.0000
vt 0.4526 0.7338 0.0000
vt 0.3568 0.7338 0.0000
vt 0.3559 0.6193 0.0000
vt 0.4517 0.7338 0.0000
vt 0.3559 0.7338 0.0000
vt 0.3566 0.6193 0.0000
vt 0.4525 0.7338 0.0000
vt 0.3566 0.7338 0.0000
vt 0.3560 0.6193 0.0000
vt 0.4502 0.7338 0.0000
vt 0.3560 0.7338 0.0000
vt 0.4521 0.7338 0.0000
vt 0.5480 0.7338 0.0000
vt 0.5477 0.7338 0.0000
vt 0.5485 0.7338 0.0000
vt 0.5476 0.7338 0.0000
vt 0.5483 0.7338 0.0000
vt 0.5481 0.7338 0.0000
vt 0.6630 0.9709 0.0000
vt 0.3995 0.9792 0.0000
vt 0.0020 0.9080 0.0000
vt 0.5480 0.2885 0.0000
vt 0.5477 0.2885 0.0000
vt 0.5485 0.2885 0.0000
vt 0.5476 0.2885 0.0000
vt 0.5483 0.2885 0.0000
vt 0.5481 0.2885 0.0000
# 140 texture coords

g Grim_Bear_Torch
usemtl Material__640
s 1
f 1/1/1 2/2/2 3/3/3 
f 4/4/4 5/5/5 6/6/6 
s 2
f 7/7/7 4/4/8 8/8/9 
s 1
f 9/9/10 7/7/10 10/10/10 
s 2
f 2/2/11 9/9/12 11/11/13 
s 4
f 7/7/14 9/9/14 4/4/15 
s 1
f 1/1/1 12/12/16 13/13/17 
f 6/6/6 5/5/5 14/14/18 
s 4
f 5/5/19 1/1/19 15/15/20 
f 2/2/15 1/1/19 4/4/15 
s 1
f 16/16/21 17/17/21 18/18/21 
f 19/19/22 20/20/22 18/18/21 
f 21/21/23 22/22/24 23/23/25 
f 24/24/26 25/25/27 22/22/24 
f 26/26/28 27/27/29 25/28/27 
f 28/29/30 29/30/31 27/27/29 
f 30/31/32 31/32/33 29/30/31 
f 32/33/34 23/23/25 31/32/33 
f 33/34/35 34/35/36 21/21/23 
f 34/35/36 35/36/37 24/24/26 
f 35/37/37 36/38/38 26/26/28 
f 36/38/38 37/39/39 28/29/30 
f 37/39/39 38/40/40 30/31/32 
f 38/40/40 33/34/35 32/33/34 
f 39/41/41 40/42/41 41/43/41 
f 42/44/42 43/45/42 44/46/42 
f 45/47/43 46/48/43 47/49/43 
f 48/50/44 49/51/44 50/52/44 
f 51/53/45 52/54/45 53/55/45 
f 54/56/46 55/57/46 56/58/46 
f 57/59/47 58/60/47 39/61/41 
f 59/62/48 60/63/48 61/64/41 
f 62/65/49 63/66/49 42/67/42 
f 58/60/47 57/59/47 64/68/42 
f 65/69/50 66/70/50 45/71/43 
f 63/66/49 62/65/49 67/72/43 
f 68/73/51 69/74/51 48/75/44 
f 66/70/50 65/69/50 70/76/44 
f 71/77/52 72/78/52 51/79/45 
f 69/74/51 68/73/51 73/80/45 
f 60/63/48 59/62/48 54/61/46 
f 72/78/52 71/77/52 74/81/46 
f 58/60/47 75/82/53 40/83/41 
f 39/61/41 76/84/41 57/59/47 
f 60/63/48 16/85/41 41/43/41 
f 61/64/41 77/86/54 59/62/48 
s 2
f 63/66/42 78/87/55 43/88/42 
f 42/67/42 79/89/42 62/65/42 
f 57/59/42 18/90/42 44/46/42 
f 64/68/42 80/91/56 58/60/42 
s 1
f 66/70/50 81/92/57 46/93/43 
f 45/71/43 82/94/43 65/69/50 
f 62/65/49 83/95/43 47/49/43 
f 67/72/43 84/96/58 63/66/49 
s 2
f 69/74/44 85/97/59 49/98/44 
f 48/75/44 86/99/44 68/73/44 
f 65/69/44 20/100/44 50/52/44 
f 70/76/44 87/101/60 66/70/44 
s 1
f 72/78/52 88/102/61 52/103/45 
f 51/79/45 89/104/45 71/77/52 
f 68/73/51 19/105/45 53/55/45 
f 73/80/45 90/106/62 69/74/51 
s 2
f 59/62/46 91/107/63 55/83/46 
f 54/61/46 92/84/46 60/63/46 
f 71/77/46 17/108/46 56/58/46 
f 74/81/46 93/109/64 72/78/46 
s 1
f 94/110/54 95/111/65 96/112/65 
s 2
f 97/113/56 98/114/66 99/115/66 
s 1
f 100/116/58 101/117/67 102/118/67 
s 2
f 103/119/60 104/120/68 105/121/68 
s 1
f 106/122/62 107/123/69 108/124/69 
s 2
f 109/110/64 110/125/70 111/112/70 
s 1
f 91/107/53 112/126/65 110/125/65 
s 2
f 75/82/55 113/127/66 95/111/66 
s 1
f 78/87/57 114/128/67 98/114/67 
s 2
f 81/92/59 115/129/68 101/117/68 
s 1
f 85/97/61 116/130/69 104/120/69 
s 2
f 88/102/63 117/131/70 107/123/70 
s 1
f 3/3/3 12/12/16 1/1/1 
f 6/6/6 8/8/71 4/4/4 
s 2
f 8/8/9 10/10/72 7/7/7 
s 1
f 10/10/10 11/11/10 9/9/10 
s 2
f 11/11/13 3/3/73 2/2/11 
s 4
f 9/9/14 2/2/15 4/4/15 
s 1
f 13/13/17 15/15/17 1/1/1 
f 14/14/18 118/132/18 6/6/6 
s 4
f 15/15/20 14/14/20 5/5/19 
f 1/1/19 5/5/19 4/4/15 
s 1
f 17/17/21 19/19/22 18/18/21 
f 20/20/22 83/133/22 18/18/21 
f 23/23/25 32/33/34 21/21/23 
f 22/22/24 21/21/23 24/24/26 
f 25/28/27 24/134/26 26/26/28 
f 27/27/29 26/26/28 28/29/30 
f 29/30/31 28/29/30 30/31/32 
f 31/32/33 30/31/32 32/33/34 
f 21/21/23 32/33/34 33/34/35 
f 24/24/26 21/21/23 34/35/36 
f 26/26/28 24/134/26 35/37/37 
f 28/29/30 26/26/28 36/38/38 
f 30/31/32 28/29/30 37/39/39 
f 32/33/34 30/31/32 38/40/40 
f 40/42/41 61/64/41 41/43/41 
f 43/45/42 64/68/42 44/46/42 
f 46/48/43 67/72/43 47/49/43 
f 49/51/44 70/76/44 50/52/44 
f 52/54/45 73/80/45 53/55/45 
f 55/57/46 74/81/46 56/58/46 
f 58/60/47 40/83/41 39/61/41 
f 60/63/48 41/43/41 61/64/41 
f 63/66/49 43/88/42 42/67/42 
f 57/59/47 44/46/42 64/68/42 
f 66/70/50 46/93/43 45/71/43 
f 62/65/49 47/49/43 67/72/43 
f 69/74/51 49/98/44 48/75/44 
f 65/69/50 50/52/44 70/76/44 
f 72/78/52 52/103/45 51/79/45 
f 68/73/51 53/55/45 73/80/45 
f 59/62/48 55/83/46 54/61/46 
f 71/77/52 56/58/46 74/81/46 
f 75/82/53 94/110/54 40/83/41 
f 76/84/41 18/90/41 57/59/47 
f 16/85/41 119/135/41 41/43/41 
f 77/86/54 91/107/53 59/62/48 
s 2
f 78/87/55 97/113/56 43/88/42 
f 79/89/42 83/95/42 62/65/42 
f 18/90/42 120/136/42 44/46/42 
f 80/91/56 75/82/55 58/60/42 
s 1
f 81/92/57 100/116/58 46/93/43 
f 82/94/43 20/100/43 65/69/50 
f 83/95/43 121/137/43 47/49/43 
f 84/96/58 78/87/57 63/66/49 
s 2
f 85/97/59 103/119/60 49/98/44 
f 86/99/44 19/105/44 68/73/44 
f 20/100/44 122/138/44 50/52/44 
f 87/101/60 81/92/59 66/70/44 
s 1
f 88/102/61 106/122/62 52/103/45 
f 89/104/45 17/108/45 71/77/52 
f 19/105/45 123/139/45 53/55/45 
f 90/106/62 85/97/61 69/74/51 
s 2
f 91/107/63 109/110/64 55/83/46 
f 92/84/46 16/85/46 60/63/46 
f 17/108/46 124/140/46 56/58/46 
f 93/109/64 88/102/63 72/78/46 
s 1
f 94/110/54 75/82/53 95/111/65 
s 2
f 97/113/56 78/87/55 98/114/66 
s 1
f 100/116/58 81/92/57 101/117/67 
s 2
f 103/119/60 85/97/59 104/120/68 
s 1
f 106/122/62 88/102/61 107/123/69 
s 2
f 109/110/64 91/107/63 110/125/70 
s 1
f 91/107/53 77/86/54 112/126/65 
s 2
f 75/82/55 80/91/56 113/127/66 
s 1
f 78/87/57 84/96/58 114/128/67 
s 2
f 81/92/59 87/101/60 115/129/68 
s 1
f 85/97/61 90/106/62 116/130/69 
s 2
f 88/102/63 93/109/64 117/131/70 
# 156 faces

