# 3ds Max Wavefront OBJ Exporter v0.97b - (c)2007 guruware
# File Created: 01.03.2016 17:54:40

mtllib wormhole.mtl

#
# object Torus001
#

v  -0.0000 0.8872 0.0994
v  0.1264 0.4924 0.3997
v  0.2115 0.8236 0.1926
v  -0.0000 0.6075 0.3851
v  0.0393 0.1531 0.2071
v  -0.0000 0.2203 0.2856
v  0.0372 0.1450 -0.1926
v  -0.0000 0.1128 -0.0994
v  0.1223 0.4762 -0.3997
v  -0.0000 0.3925 -0.3851
v  0.2094 0.8155 -0.2071
v  -0.0000 0.7797 -0.2856
v  0.1969 0.3582 0.3892
v  0.3813 0.6935 0.2737
v  0.0565 0.1028 0.1156
v  0.1005 0.1828 -0.2737
v  0.2849 0.5182 -0.3892
v  0.4253 0.7735 -0.1156
v  0.2155 0.2295 0.3543
v  0.4889 0.5206 0.3376
v  0.0688 0.0733 0.0167
v  0.1956 0.2083 -0.3376
v  0.4691 0.4995 -0.3543
v  0.6157 0.6557 -0.0167
v  0.1963 0.1246 0.2971
v  0.5265 0.3341 0.3802
v  0.0920 0.0584 -0.0831
v  0.3179 0.2017 -0.3802
v  0.6480 0.4113 -0.2971
v  0.7524 0.4775 0.0831
v  0.1588 0.0516 0.2212
v  0.4994 0.1623 0.3990
v  0.1349 0.0438 -0.1778
v  0.4517 0.1468 -0.3990
v  0.7922 0.2574 -0.2212
v  0.8161 0.2652 0.1778
v  0.1222 0.0077 0.1315
v  0.4242 0.0267 0.3927
v  0.1970 0.0124 -0.2612
v  0.5738 0.0361 -0.3927
v  0.8758 0.0551 -0.1315
v  0.8011 0.0504 0.2612
v  0.0998 -0.0190 0.0335
v  0.3239 -0.0618 0.3618
v  0.2670 -0.0509 -0.3283
v  0.6584 -0.1256 -0.3618
v  0.8825 -0.1683 -0.0335
v  0.7153 -0.1364 0.3283
v  0.0957 -0.0450 -0.0667
v  0.2218 -0.1044 0.3081
v  0.3263 -0.1536 -0.3747
v  0.6830 -0.3214 -0.3081
v  0.8091 -0.3807 0.0667
v  0.5785 -0.2722 0.3747
v  0.1038 -0.0859 -0.1626
v  0.1360 -0.1125 0.2350
v  0.3531 -0.2921 -0.3976
v  0.6345 -0.5249 -0.2350
v  0.6667 -0.5515 0.1626
v  0.4175 -0.3454 0.3976
v  0.1097 -0.1510 -0.2483
v  0.0754 -0.1038 0.1472
v  0.3282 -0.4518 -0.3955
v  0.5124 -0.7052 -0.1472
v  0.4781 -0.6580 0.2483
v  0.2596 -0.3573 0.3955
v  0.0951 -0.2401 -0.3185
v  0.0380 -0.0961 0.0501
v  0.2411 -0.6089 -0.3686
v  0.3301 -0.8337 -0.0501
v  0.2730 -0.6896 0.3185
v  0.1270 -0.3208 0.3686
v  0.0432 -0.3424 -0.3686
v  0.0130 -0.1025 -0.0501
v  0.0930 -0.7359 -0.3185
v  0.1124 -0.8896 0.0501
v  0.0821 -0.6498 0.3686
v  0.0324 -0.2562 0.3185
v  -0.0553 -0.4381 -0.3955
v  -0.0161 -0.1273 -0.1472
v  -0.1019 -0.8069 -0.2483
v  -0.1093 -0.8649 0.1472
v  -0.0700 -0.5540 0.3955
v  -0.0234 -0.1852 0.2483
v  -0.1994 -0.5037 -0.3976
v  -0.0650 -0.1642 -0.2350
v  -0.3185 -0.8045 -0.1626
v  -0.3031 -0.7656 0.2350
v  -0.1687 -0.4260 0.3976
v  -0.0496 -0.1253 0.1626
v  -0.3758 -0.5173 -0.3747
v  -0.1441 -0.1983 -0.3081
v  -0.5256 -0.7234 -0.0667
v  -0.4437 -0.6107 0.3081
v  -0.2120 -0.2918 0.3747
v  -0.0622 -0.0856 0.0667
v  -0.5611 -0.4642 -0.3283
v  -0.2541 -0.2102 -0.3618
v  -0.6922 -0.5727 0.0335
v  -0.5164 -0.4272 0.3618
v  -0.2094 -0.1733 0.3283
v  -0.0783 -0.0648 -0.0335
v  -0.7263 -0.3418 -0.2612
v  -0.3846 -0.1810 -0.3927
v  -0.7940 -0.3736 0.1315
v  -0.5202 -0.2448 0.3927
v  -0.1786 -0.0840 0.2612
v  -0.1108 -0.0521 -0.1315
v  -0.8429 -0.1608 -0.1778
v  -0.5158 -0.0984 -0.3990
v  -0.8182 -0.1561 0.2212
v  -0.4665 -0.0890 0.3990
v  -0.1394 -0.0266 0.1778
v  -0.1640 -0.0313 -0.2212
v  -0.8893 0.0560 -0.0831
v  -0.6223 0.0392 -0.3802
v  -0.7660 0.0482 0.2971
v  -0.3757 0.0236 0.3802
v  -0.1087 0.0068 0.0831
v  -0.2320 0.0146 -0.2971
v  -0.8554 0.2779 0.0167
v  -0.6793 0.2207 -0.3376
v  -0.6517 0.2117 0.3543
v  -0.2718 0.0883 0.3376
v  -0.0956 0.0311 -0.0167
v  -0.2994 0.0973 -0.3543
v  -0.7453 0.4730 0.1156
v  -0.6682 0.4241 -0.2737
v  -0.4992 0.3168 0.3892
v  -0.1761 0.1118 0.2737
v  -0.0990 0.0628 -0.1156
v  -0.3451 0.2190 -0.3892
v  -0.5764 0.6138 0.2071
v  -0.5821 0.6199 -0.1926
v  -0.3365 0.3584 0.3997
v  -0.1024 0.1091 0.1926
v  -0.1082 0.1152 -0.2071
v  -0.3480 0.3706 -0.3997
v  -0.3756 0.6833 0.2856
v  -0.4274 0.7775 -0.0994
v  -0.1891 0.3439 0.3851
v  -0.0543 0.0988 0.0994
v  -0.1061 0.1930 -0.2856
v  -0.2927 0.5324 -0.3851
v  -0.1741 0.6779 0.3462
v  -0.2238 0.8715 0.0000
v  -0.0746 0.2907 0.3462
v  -0.0249 0.0971 -0.0000
v  -0.0746 0.2907 -0.3462
v  -0.1741 0.6779 -0.3462
# 150 vertices

vn 0.0068 0.9715 0.2369
vn 0.0973 0.0551 0.9937
vn 0.2347 0.8560 0.4606
vn 0.0562 0.3197 0.9459
vn -0.0546 -0.8712 0.4878
vn 0.1770 -0.6856 0.7061
vn -0.3709 -0.8130 -0.4488
vn -0.0919 -0.9721 -0.2158
vn -0.0738 0.0560 -0.9957
vn -0.1185 -0.2173 -0.9689
vn 0.2006 0.8450 -0.4957
vn -0.0256 0.7252 -0.6880
vn 0.0143 -0.2077 0.9781
vn 0.3833 0.6478 0.6584
vn -0.3710 -0.8933 0.2537
vn -0.5019 -0.5438 -0.6725
vn 0.0828 0.2747 -0.9580
vn 0.4561 0.8462 -0.2755
vn -0.1820 -0.4111 0.8932
vn 0.4184 0.3929 0.8189
vn -0.6723 -0.7394 0.0350
vn -0.4611 -0.2578 -0.8491
vn 0.3155 0.3960 -0.8623
vn 0.6832 0.7292 -0.0398
vn -0.4563 -0.4970 0.7381
vn 0.3307 0.1473 0.9322
vn -0.8698 -0.4599 -0.1785
vn -0.2857 -0.0338 -0.9577
vn 0.5737 0.3967 -0.7166
vn 0.8306 0.5204 0.1980
vn -0.7401 -0.4184 0.5265
vn 0.1366 -0.0355 0.9900
vn -0.9021 -0.1364 -0.4095
vn -0.0337 0.0841 -0.9959
vn 0.8010 0.2785 -0.5300
vn 0.8649 0.2673 0.4248
vn -0.9398 -0.1772 0.2921
vn -0.1258 -0.1149 0.9854
vn -0.7593 0.1301 -0.6377
vn 0.2365 0.0785 -0.9685
vn 0.9471 0.0688 -0.3136
vn 0.7780 0.0268 0.6277
vn -0.9854 0.1554 0.0703
vn -0.4037 -0.0684 0.9123
vn -0.5016 0.2632 -0.8241
vn 0.4691 -0.0449 -0.8820
vn 0.9796 -0.1846 -0.0796
vn 0.5884 -0.1466 0.7952
vn -0.8670 0.4776 -0.1419
vn -0.6309 0.1064 0.7685
vn -0.2168 0.2465 -0.9446
vn 0.6166 -0.2576 -0.7440
vn 0.8914 -0.4245 0.1588
vn 0.3371 -0.2135 0.9169
vn -0.6186 0.6931 -0.3702
vn -0.7323 0.3810 0.5644
vn 0.0238 0.1045 -0.9942
vn 0.6484 -0.5119 -0.5635
vn 0.7025 -0.5964 0.3883
vn 0.0777 -0.1572 0.9845
vn -0.3156 0.7339 -0.6016
vn -0.6540 0.6802 0.3310
vn 0.1725 -0.1228 -0.9773
vn 0.5588 -0.7513 -0.3512
vn 0.4553 -0.6614 0.5961
vn -0.1350 0.0138 0.9908
vn -0.0565 0.6011 -0.7972
vn -0.4100 0.9059 0.1058
vn 0.2027 -0.3854 -0.9002
vn 0.3686 -0.9219 -0.1193
vn 0.2052 -0.6039 0.7702
vn -0.2533 0.2682 0.9295
vn 0.0928 0.3571 -0.9295
vn -0.0772 0.9914 -0.1058
vn 0.1112 -0.6280 -0.7702
vn 0.1211 -0.9854 0.1193
vn 0.0080 -0.4354 0.9002
vn -0.2401 0.5539 0.7972
vn 0.1117 0.0771 -0.9908
vn 0.2454 0.9112 -0.3310
vn -0.0803 -0.7989 -0.5961
vn -0.1278 -0.9275 0.3512
vn -0.0920 -0.1907 0.9773
vn -0.0770 0.7951 0.6016
vn 0.0076 -0.1752 -0.9845
vn 0.4582 0.6866 -0.5644
vn -0.3283 -0.8611 -0.3883
vn -0.3216 -0.7610 0.5635
vn -0.0712 0.0801 0.9942
vn 0.2081 0.9054 0.3702
vn -0.1926 -0.3495 -0.9169
vn 0.5016 0.3972 -0.7685
vn -0.5767 -0.8014 -0.1588
vn -0.4162 -0.5227 0.7440
vn 0.0713 0.3205 0.9446
vn 0.5297 0.8362 0.1419
vn -0.4450 -0.4119 -0.7952
vn 0.3867 0.1345 -0.9123
vn -0.7695 -0.6337 0.0796
vn -0.3894 -0.2654 0.8820
vn 0.3128 0.4723 0.8241
vn 0.7886 0.6109 -0.0703
vn -0.6947 -0.3513 -0.6277
vn 0.1656 -0.0401 -0.9854
vn -0.8631 -0.3959 0.3136
vn -0.2450 -0.0451 0.9685
vn 0.6027 0.4798 0.6377
vn 0.9089 0.2975 -0.2921
vn -0.8867 -0.1825 -0.4248
vn -0.1027 -0.0969 -0.9900
vn -0.8361 -0.1418 0.5300
vn -0.0109 0.0899 0.9959
vn 0.8562 0.3150 0.4095
vn 0.8501 -0.0101 -0.5265
vn -0.9786 0.0559 -0.1980
vn -0.3608 -0.0302 -0.9322
vn -0.6939 0.0712 0.7166
vn 0.2666 0.1081 0.9577
vn 0.9838 0.0160 0.1785
vn 0.6393 -0.2157 -0.7381
vn -0.9500 0.3098 0.0398
vn -0.5559 0.1427 -0.8189
vn -0.4673 0.1950 0.8623
vn 0.5283 -0.0038 0.8491
vn 0.9454 -0.3241 -0.0350
vn 0.3576 -0.2726 -0.8932
vn -0.8073 0.5219 0.2755
vn -0.6479 0.3830 -0.6584
vn -0.2049 0.2008 0.9580
vn 0.7018 -0.2348 0.6725
vn 0.7554 -0.6041 -0.2537
vn 0.0875 -0.1889 -0.9781
vn -0.5829 0.6439 0.4957
vn -0.6181 0.6371 -0.4606
vn 0.0377 0.0846 0.9957
vn 0.7167 -0.5338 0.4488
vn 0.4676 -0.7371 -0.4878
vn -0.1118 0.0014 -0.9937
vn -0.3269 0.6479 0.6880
vn -0.4740 0.8480 -0.2369
vn 0.2086 -0.1333 0.9689
vn 0.5488 -0.8076 0.2158
vn 0.1752 -0.6861 -0.7061
vn -0.2032 0.2531 -0.9459
vn -0.0968 0.5318 0.8413
vn -0.2487 0.9686 -0.0000
vn 0.2650 -0.4113 0.8721
vn 0.2487 -0.9686 -0.0000
vn -0.0341 -0.4881 -0.8721
vn -0.1714 0.5127 -0.8413
# 150 vertex normals

vt 0.0000 0.0000 0.0000
vt 0.1667 0.0400 0.0000
vt 0.0000 0.0400 0.0000
vt 0.1667 0.0000 0.0000
vt 0.3333 0.0400 0.0000
vt 0.3333 0.0000 0.0000
vt 0.5000 0.0400 0.0000
vt 0.5000 0.0000 0.0000
vt 0.6667 0.0400 0.0000
vt 0.6667 0.0000 0.0000
vt 0.8333 0.0400 0.0000
vt 0.8333 0.0000 0.0000
vt 1.0000 0.0400 0.0000
vt 1.0000 0.0000 0.0000
vt 0.1667 0.0800 0.0000
vt 0.0000 0.0800 0.0000
vt 0.3333 0.0800 0.0000
vt 0.5000 0.0800 0.0000
vt 0.6667 0.0800 0.0000
vt 0.8333 0.0800 0.0000
vt 1.0000 0.0800 0.0000
vt 0.1667 0.1200 0.0000
vt 0.0000 0.1200 0.0000
vt 0.3333 0.1200 0.0000
vt 0.5000 0.1200 0.0000
vt 0.6667 0.1200 0.0000
vt 0.8333 0.1200 0.0000
vt 1.0000 0.1200 0.0000
vt 0.1667 0.1600 0.0000
vt 0.0000 0.1600 0.0000
vt 0.3333 0.1600 0.0000
vt 0.5000 0.1600 0.0000
vt 0.6667 0.1600 0.0000
vt 0.8333 0.1600 0.0000
vt 1.0000 0.1600 0.0000
vt 0.1667 0.2000 0.0000
vt 0.0000 0.2000 0.0000
vt 0.3333 0.2000 0.0000
vt 0.5000 0.2000 0.0000
vt 0.6667 0.2000 0.0000
vt 0.8333 0.2000 0.0000
vt 1.0000 0.2000 0.0000
vt 0.1667 0.2400 0.0000
vt 0.0000 0.2400 0.0000
vt 0.3333 0.2400 0.0000
vt 0.5000 0.2400 0.0000
vt 0.6667 0.2400 0.0000
vt 0.8333 0.2400 0.0000
vt 1.0000 0.2400 0.0000
vt 0.1667 0.2800 0.0000
vt 0.0000 0.2800 0.0000
vt 0.3333 0.2800 0.0000
vt 0.5000 0.2800 0.0000
vt 0.6667 0.2800 0.0000
vt 0.8333 0.2800 0.0000
vt 1.0000 0.2800 0.0000
vt 0.1667 0.3200 0.0000
vt 0.0000 0.3200 0.0000
vt 0.3333 0.3200 0.0000
vt 0.5000 0.3200 0.0000
vt 0.6667 0.3200 0.0000
vt 0.8333 0.3200 0.0000
vt 1.0000 0.3200 0.0000
vt 0.1667 0.3600 0.0000
vt 0.0000 0.3600 0.0000
vt 0.3333 0.3600 0.0000
vt 0.5000 0.3600 0.0000
vt 0.6667 0.3600 0.0000
vt 0.8333 0.3600 0.0000
vt 1.0000 0.3600 0.0000
vt 0.1667 0.4000 0.0000
vt 0.0000 0.4000 0.0000
vt 0.3333 0.4000 0.0000
vt 0.5000 0.4000 0.0000
vt 0.6667 0.4000 0.0000
vt 0.8333 0.4000 0.0000
vt 1.0000 0.4000 0.0000
vt 0.1667 0.4400 0.0000
vt 0.0000 0.4400 0.0000
vt 0.3333 0.4400 0.0000
vt 0.5000 0.4400 0.0000
vt 0.6667 0.4400 0.0000
vt 0.8333 0.4400 0.0000
vt 1.0000 0.4400 0.0000
vt 0.1667 0.4800 0.0000
vt 0.0000 0.4800 0.0000
vt 0.3333 0.4800 0.0000
vt 0.5000 0.4800 0.0000
vt 0.6667 0.4800 0.0000
vt 0.8333 0.4800 0.0000
vt 1.0000 0.4800 0.0000
vt 0.1667 0.5200 0.0000
vt 0.0000 0.5200 0.0000
vt 0.3333 0.5200 0.0000
vt 0.5000 0.5200 0.0000
vt 0.6667 0.5200 0.0000
vt 0.8333 0.5200 0.0000
vt 1.0000 0.5200 0.0000
vt 0.1667 0.5600 0.0000
vt 0.0000 0.5600 0.0000
vt 0.3333 0.5600 0.0000
vt 0.5000 0.5600 0.0000
vt 0.6667 0.5600 0.0000
vt 0.8333 0.5600 0.0000
vt 1.0000 0.5600 0.0000
vt 0.1667 0.6000 0.0000
vt 0.0000 0.6000 0.0000
vt 0.3333 0.6000 0.0000
vt 0.5000 0.6000 0.0000
vt 0.6667 0.6000 0.0000
vt 0.8333 0.6000 0.0000
vt 1.0000 0.6000 0.0000
vt 0.1667 0.6400 0.0000
vt 0.0000 0.6400 0.0000
vt 0.3333 0.6400 0.0000
vt 0.5000 0.6400 0.0000
vt 0.6667 0.6400 0.0000
vt 0.8333 0.6400 0.0000
vt 1.0000 0.6400 0.0000
vt 0.1667 0.6800 0.0000
vt 0.0000 0.6800 0.0000
vt 0.3333 0.6800 0.0000
vt 0.5000 0.6800 0.0000
vt 0.6667 0.6800 0.0000
vt 0.8333 0.6800 0.0000
vt 1.0000 0.6800 0.0000
vt 0.1667 0.7200 0.0000
vt 0.0000 0.7200 0.0000
vt 0.3333 0.7200 0.0000
vt 0.5000 0.7200 0.0000
vt 0.6667 0.7200 0.0000
vt 0.8333 0.7200 0.0000
vt 1.0000 0.7200 0.0000
vt 0.1667 0.7600 0.0000
vt 0.0000 0.7600 0.0000
vt 0.3333 0.7600 0.0000
vt 0.5000 0.7600 0.0000
vt 0.6667 0.7600 0.0000
vt 0.8333 0.7600 0.0000
vt 1.0000 0.7600 0.0000
vt 0.1667 0.8000 0.0000
vt 0.0000 0.8000 0.0000
vt 0.3333 0.8000 0.0000
vt 0.5000 0.8000 0.0000
vt 0.6667 0.8000 0.0000
vt 0.8333 0.8000 0.0000
vt 1.0000 0.8000 0.0000
vt 0.1667 0.8400 0.0000
vt 0.0000 0.8400 0.0000
vt 0.3333 0.8400 0.0000
vt 0.5000 0.8400 0.0000
vt 0.6667 0.8400 0.0000
vt 0.8333 0.8400 0.0000
vt 1.0000 0.8400 0.0000
vt 0.1667 0.8800 0.0000
vt 0.0000 0.8800 0.0000
vt 0.3333 0.8800 0.0000
vt 0.5000 0.8800 0.0000
vt 0.6667 0.8800 0.0000
vt 0.8333 0.8800 0.0000
vt 1.0000 0.8800 0.0000
vt 0.1667 0.9200 0.0000
vt 0.0000 0.9200 0.0000
vt 0.3333 0.9200 0.0000
vt 0.5000 0.9200 0.0000
vt 0.6667 0.9200 0.0000
vt 0.8333 0.9200 0.0000
vt 1.0000 0.9200 0.0000
vt 0.1667 0.9600 0.0000
vt 0.0000 0.9600 0.0000
vt 0.3333 0.9600 0.0000
vt 0.5000 0.9600 0.0000
vt 0.6667 0.9600 0.0000
vt 0.8333 0.9600 0.0000
vt 1.0000 0.9600 0.0000
vt 0.1667 1.0000 0.0000
vt 0.0000 1.0000 0.0000
vt 0.3333 1.0000 0.0000
vt 0.5000 1.0000 0.0000
vt 0.6667 1.0000 0.0000
vt 0.8333 1.0000 0.0000
vt 1.0000 1.0000 0.0000
# 182 texture coords

g Torus001
usemtl wire_176026026
s 1
f 1/1/1 2/2/2 3/3/3 
f 1/1/1 4/4/4 2/2/2 
f 4/4/4 5/5/5 2/2/2 
f 4/4/4 6/6/6 5/5/5 
f 6/6/6 7/7/7 5/5/5 
f 6/6/6 8/8/8 7/7/7 
f 8/8/8 9/9/9 7/7/7 
f 8/8/8 10/10/10 9/9/9 
f 10/10/10 11/11/11 9/9/9 
f 10/10/10 12/12/12 11/11/11 
f 12/12/12 3/13/3 11/11/11 
f 12/12/12 1/14/1 3/13/3 
f 3/3/3 13/15/13 14/16/14 
f 3/3/3 2/2/2 13/15/13 
f 2/2/2 15/17/15 13/15/13 
f 2/2/2 5/5/5 15/17/15 
f 5/5/5 16/18/16 15/17/15 
f 5/5/5 7/7/7 16/18/16 
f 7/7/7 17/19/17 16/18/16 
f 7/7/7 9/9/9 17/19/17 
f 9/9/9 18/20/18 17/19/17 
f 9/9/9 11/11/11 18/20/18 
f 11/11/11 14/21/14 18/20/18 
f 11/11/11 3/13/3 14/21/14 
f 14/16/14 19/22/19 20/23/20 
f 14/16/14 13/15/13 19/22/19 
f 13/15/13 21/24/21 19/22/19 
f 13/15/13 15/17/15 21/24/21 
f 15/17/15 22/25/22 21/24/21 
f 15/17/15 16/18/16 22/25/22 
f 16/18/16 23/26/23 22/25/22 
f 16/18/16 17/19/17 23/26/23 
f 17/19/17 24/27/24 23/26/23 
f 17/19/17 18/20/18 24/27/24 
f 18/20/18 20/28/20 24/27/24 
f 18/20/18 14/21/14 20/28/20 
f 20/23/20 25/29/25 26/30/26 
f 20/23/20 19/22/19 25/29/25 
f 19/22/19 27/31/27 25/29/25 
f 19/22/19 21/24/21 27/31/27 
f 21/24/21 28/32/28 27/31/27 
f 21/24/21 22/25/22 28/32/28 
f 22/25/22 29/33/29 28/32/28 
f 22/25/22 23/26/23 29/33/29 
f 23/26/23 30/34/30 29/33/29 
f 23/26/23 24/27/24 30/34/30 
f 24/27/24 26/35/26 30/34/30 
f 24/27/24 20/28/20 26/35/26 
f 26/30/26 31/36/31 32/37/32 
f 26/30/26 25/29/25 31/36/31 
f 25/29/25 33/38/33 31/36/31 
f 25/29/25 27/31/27 33/38/33 
f 27/31/27 34/39/34 33/38/33 
f 27/31/27 28/32/28 34/39/34 
f 28/32/28 35/40/35 34/39/34 
f 28/32/28 29/33/29 35/40/35 
f 29/33/29 36/41/36 35/40/35 
f 29/33/29 30/34/30 36/41/36 
f 30/34/30 32/42/32 36/41/36 
f 30/34/30 26/35/26 32/42/32 
f 32/37/32 37/43/37 38/44/38 
f 32/37/32 31/36/31 37/43/37 
f 31/36/31 39/45/39 37/43/37 
f 31/36/31 33/38/33 39/45/39 
f 33/38/33 40/46/40 39/45/39 
f 33/38/33 34/39/34 40/46/40 
f 34/39/34 41/47/41 40/46/40 
f 34/39/34 35/40/35 41/47/41 
f 35/40/35 42/48/42 41/47/41 
f 35/40/35 36/41/36 42/48/42 
f 36/41/36 38/49/38 42/48/42 
f 36/41/36 32/42/32 38/49/38 
f 38/44/38 43/50/43 44/51/44 
f 38/44/38 37/43/37 43/50/43 
f 37/43/37 45/52/45 43/50/43 
f 37/43/37 39/45/39 45/52/45 
f 39/45/39 46/53/46 45/52/45 
f 39/45/39 40/46/40 46/53/46 
f 40/46/40 47/54/47 46/53/46 
f 40/46/40 41/47/41 47/54/47 
f 41/47/41 48/55/48 47/54/47 
f 41/47/41 42/48/42 48/55/48 
f 42/48/42 44/56/44 48/55/48 
f 42/48/42 38/49/38 44/56/44 
f 44/51/44 49/57/49 50/58/50 
f 44/51/44 43/50/43 49/57/49 
f 43/50/43 51/59/51 49/57/49 
f 43/50/43 45/52/45 51/59/51 
f 45/52/45 52/60/52 51/59/51 
f 45/52/45 46/53/46 52/60/52 
f 46/53/46 53/61/53 52/60/52 
f 46/53/46 47/54/47 53/61/53 
f 47/54/47 54/62/54 53/61/53 
f 47/54/47 48/55/48 54/62/54 
f 48/55/48 50/63/50 54/62/54 
f 48/55/48 44/56/44 50/63/50 
f 50/58/50 55/64/55 56/65/56 
f 50/58/50 49/57/49 55/64/55 
f 49/57/49 57/66/57 55/64/55 
f 49/57/49 51/59/51 57/66/57 
f 51/59/51 58/67/58 57/66/57 
f 51/59/51 52/60/52 58/67/58 
f 52/60/52 59/68/59 58/67/58 
f 52/60/52 53/61/53 59/68/59 
f 53/61/53 60/69/60 59/68/59 
f 53/61/53 54/62/54 60/69/60 
f 54/62/54 56/70/56 60/69/60 
f 54/62/54 50/63/50 56/70/56 
f 56/65/56 61/71/61 62/72/62 
f 56/65/56 55/64/55 61/71/61 
f 55/64/55 63/73/63 61/71/61 
f 55/64/55 57/66/57 63/73/63 
f 57/66/57 64/74/64 63/73/63 
f 57/66/57 58/67/58 64/74/64 
f 58/67/58 65/75/65 64/74/64 
f 58/67/58 59/68/59 65/75/65 
f 59/68/59 66/76/66 65/75/65 
f 59/68/59 60/69/60 66/76/66 
f 60/69/60 62/77/62 66/76/66 
f 60/69/60 56/70/56 62/77/62 
f 62/72/62 67/78/67 68/79/68 
f 62/72/62 61/71/61 67/78/67 
f 61/71/61 69/80/69 67/78/67 
f 61/71/61 63/73/63 69/80/69 
f 63/73/63 70/81/70 69/80/69 
f 63/73/63 64/74/64 70/81/70 
f 64/74/64 71/82/71 70/81/70 
f 64/74/64 65/75/65 71/82/71 
f 65/75/65 72/83/72 71/82/71 
f 65/75/65 66/76/66 72/83/72 
f 66/76/66 68/84/68 72/83/72 
f 66/76/66 62/77/62 68/84/68 
f 68/79/68 73/85/73 74/86/74 
f 68/79/68 67/78/67 73/85/73 
f 67/78/67 75/87/75 73/85/73 
f 67/78/67 69/80/69 75/87/75 
f 69/80/69 76/88/76 75/87/75 
f 69/80/69 70/81/70 76/88/76 
f 70/81/70 77/89/77 76/88/76 
f 70/81/70 71/82/71 77/89/77 
f 71/82/71 78/90/78 77/89/77 
f 71/82/71 72/83/72 78/90/78 
f 72/83/72 74/91/74 78/90/78 
f 72/83/72 68/84/68 74/91/74 
f 74/86/74 79/92/79 80/93/80 
f 74/86/74 73/85/73 79/92/79 
f 73/85/73 81/94/81 79/92/79 
f 73/85/73 75/87/75 81/94/81 
f 75/87/75 82/95/82 81/94/81 
f 75/87/75 76/88/76 82/95/82 
f 76/88/76 83/96/83 82/95/82 
f 76/88/76 77/89/77 83/96/83 
f 77/89/77 84/97/84 83/96/83 
f 77/89/77 78/90/78 84/97/84 
f 78/90/78 80/98/80 84/97/84 
f 78/90/78 74/91/74 80/98/80 
f 80/93/80 85/99/85 86/100/86 
f 80/93/80 79/92/79 85/99/85 
f 79/92/79 87/101/87 85/99/85 
f 79/92/79 81/94/81 87/101/87 
f 81/94/81 88/102/88 87/101/87 
f 81/94/81 82/95/82 88/102/88 
f 82/95/82 89/103/89 88/102/88 
f 82/95/82 83/96/83 89/103/89 
f 83/96/83 90/104/90 89/103/89 
f 83/96/83 84/97/84 90/104/90 
f 84/97/84 86/105/86 90/104/90 
f 84/97/84 80/98/80 86/105/86 
f 86/100/86 91/106/91 92/107/92 
f 86/100/86 85/99/85 91/106/91 
f 85/99/85 93/108/93 91/106/91 
f 85/99/85 87/101/87 93/108/93 
f 87/101/87 94/109/94 93/108/93 
f 87/101/87 88/102/88 94/109/94 
f 88/102/88 95/110/95 94/109/94 
f 88/102/88 89/103/89 95/110/95 
f 89/103/89 96/111/96 95/110/95 
f 89/103/89 90/104/90 96/111/96 
f 90/104/90 92/112/92 96/111/96 
f 90/104/90 86/105/86 92/112/92 
f 92/107/92 97/113/97 98/114/98 
f 92/107/92 91/106/91 97/113/97 
f 91/106/91 99/115/99 97/113/97 
f 91/106/91 93/108/93 99/115/99 
f 93/108/93 100/116/100 99/115/99 
f 93/108/93 94/109/94 100/116/100 
f 94/109/94 101/117/101 100/116/100 
f 94/109/94 95/110/95 101/117/101 
f 95/110/95 102/118/102 101/117/101 
f 95/110/95 96/111/96 102/118/102 
f 96/111/96 98/119/98 102/118/102 
f 96/111/96 92/112/92 98/119/98 
f 98/114/98 103/120/103 104/121/104 
f 98/114/98 97/113/97 103/120/103 
f 97/113/97 105/122/105 103/120/103 
f 97/113/97 99/115/99 105/122/105 
f 99/115/99 106/123/106 105/122/105 
f 99/115/99 100/116/100 106/123/106 
f 100/116/100 107/124/107 106/123/106 
f 100/116/100 101/117/101 107/124/107 
f 101/117/101 108/125/108 107/124/107 
f 101/117/101 102/118/102 108/125/108 
f 102/118/102 104/126/104 108/125/108 
f 102/118/102 98/119/98 104/126/104 
f 104/121/104 109/127/109 110/128/110 
f 104/121/104 103/120/103 109/127/109 
f 103/120/103 111/129/111 109/127/109 
f 103/120/103 105/122/105 111/129/111 
f 105/122/105 112/130/112 111/129/111 
f 105/122/105 106/123/106 112/130/112 
f 106/123/106 113/131/113 112/130/112 
f 106/123/106 107/124/107 113/131/113 
f 107/124/107 114/132/114 113/131/113 
f 107/124/107 108/125/108 114/132/114 
f 108/125/108 110/133/110 114/132/114 
f 108/125/108 104/126/104 110/133/110 
f 110/128/110 115/134/115 116/135/116 
f 110/128/110 109/127/109 115/134/115 
f 109/127/109 117/136/117 115/134/115 
f 109/127/109 111/129/111 117/136/117 
f 111/129/111 118/137/118 117/136/117 
f 111/129/111 112/130/112 118/137/118 
f 112/130/112 119/138/119 118/137/118 
f 112/130/112 113/131/113 119/138/119 
f 113/131/113 120/139/120 119/138/119 
f 113/131/113 114/132/114 120/139/120 
f 114/132/114 116/140/116 120/139/120 
f 114/132/114 110/133/110 116/140/116 
f 116/135/116 121/141/121 122/142/122 
f 116/135/116 115/134/115 121/141/121 
f 115/134/115 123/143/123 121/141/121 
f 115/134/115 117/136/117 123/143/123 
f 117/136/117 124/144/124 123/143/123 
f 117/136/117 118/137/118 124/144/124 
f 118/137/118 125/145/125 124/144/124 
f 118/137/118 119/138/119 125/145/125 
f 119/138/119 126/146/126 125/145/125 
f 119/138/119 120/139/120 126/146/126 
f 120/139/120 122/147/122 126/146/126 
f 120/139/120 116/140/116 122/147/122 
f 122/142/122 127/148/127 128/149/128 
f 122/142/122 121/141/121 127/148/127 
f 121/141/121 129/150/129 127/148/127 
f 121/141/121 123/143/123 129/150/129 
f 123/143/123 130/151/130 129/150/129 
f 123/143/123 124/144/124 130/151/130 
f 124/144/124 131/152/131 130/151/130 
f 124/144/124 125/145/125 131/152/131 
f 125/145/125 132/153/132 131/152/131 
f 125/145/125 126/146/126 132/153/132 
f 126/146/126 128/154/128 132/153/132 
f 126/146/126 122/147/122 128/154/128 
f 128/149/128 133/155/133 134/156/134 
f 128/149/128 127/148/127 133/155/133 
f 127/148/127 135/157/135 133/155/133 
f 127/148/127 129/150/129 135/157/135 
f 129/150/129 136/158/136 135/157/135 
f 129/150/129 130/151/130 136/158/136 
f 130/151/130 137/159/137 136/158/136 
f 130/151/130 131/152/131 137/159/137 
f 131/152/131 138/160/138 137/159/137 
f 131/152/131 132/153/132 138/160/138 
f 132/153/132 134/161/134 138/160/138 
f 132/153/132 128/154/128 134/161/134 
f 134/156/134 139/162/139 140/163/140 
f 134/156/134 133/155/133 139/162/139 
f 133/155/133 141/164/141 139/162/139 
f 133/155/133 135/157/135 141/164/141 
f 135/157/135 142/165/142 141/164/141 
f 135/157/135 136/158/136 142/165/142 
f 136/158/136 143/166/143 142/165/142 
f 136/158/136 137/159/137 143/166/143 
f 137/159/137 144/167/144 143/166/143 
f 137/159/137 138/160/138 144/167/144 
f 138/160/138 140/168/140 144/167/144 
f 138/160/138 134/161/134 140/168/140 
f 140/163/140 145/169/145 146/170/146 
f 140/163/140 139/162/139 145/169/145 
f 139/162/139 147/171/147 145/169/145 
f 139/162/139 141/164/141 147/171/147 
f 141/164/141 148/172/148 147/171/147 
f 141/164/141 142/165/142 148/172/148 
f 142/165/142 149/173/149 148/172/148 
f 142/165/142 143/166/143 149/173/149 
f 143/166/143 150/174/150 149/173/149 
f 143/166/143 144/167/144 150/174/150 
f 144/167/144 146/175/146 150/174/150 
f 144/167/144 140/168/140 146/175/146 
f 146/170/146 4/176/4 1/177/1 
f 146/170/146 145/169/145 4/176/4 
f 145/169/145 6/178/6 4/176/4 
f 145/169/145 147/171/147 6/178/6 
f 147/171/147 8/179/8 6/178/6 
f 147/171/147 148/172/148 8/179/8 
f 148/172/148 10/180/10 8/179/8 
f 148/172/148 149/173/149 10/180/10 
f 149/173/149 12/181/12 10/180/10 
f 149/173/149 150/174/150 12/181/12 
f 150/174/150 1/182/1 12/181/12 
f 150/174/150 146/175/146 1/182/1 
# 300 faces

