# 3ds Max Wavefront OBJ Exporter v0.97b - (c)2007 guruware
# File Created: 14.01.2016 13:56:35

mtllib frosty_nose.mtl

#
# object Cone001
#

v  0.0218 2.1983 0.4455
v  0.0797 2.2318 0.4455
v  0.0864 2.2156 0.4455
v  0.0887 2.1983 0.4455
v  0.0552 2.2563 0.4455
v  0.0691 2.2456 0.4455
v  0.0218 2.2652 0.4455
v  0.0391 2.2630 0.4455
v  -0.0117 2.2563 0.4455
v  0.0044 2.2630 0.4455
v  -0.0362 2.2318 0.4455
v  -0.0256 2.2456 0.4455
v  -0.0452 2.1983 0.4455
v  -0.0429 2.2156 0.4455
v  -0.0362 2.1648 0.4455
v  -0.0429 2.1810 0.4455
v  -0.0117 2.1403 0.4455
v  -0.0256 2.1510 0.4455
v  0.0218 2.1314 0.4455
v  0.0044 2.1337 0.4455
v  0.0552 2.1403 0.4455
v  0.0391 2.1337 0.4455
v  0.0797 2.1648 0.4455
v  0.0691 2.1510 0.4455
v  0.0864 2.1810 0.4455
v  0.0735 2.2122 0.5097
v  0.0753 2.1983 0.5097
v  0.0681 2.2251 0.5097
v  0.0596 2.2362 0.5097
v  0.0485 2.2447 0.5097
v  0.0356 2.2500 0.5097
v  0.0218 2.2518 0.5097
v  0.0079 2.2500 0.5097
v  -0.0050 2.2447 0.5097
v  -0.0161 2.2362 0.5097
v  -0.0246 2.2251 0.5097
v  -0.0300 2.2122 0.5097
v  -0.0318 2.1983 0.5097
v  -0.0300 2.1844 0.5097
v  -0.0246 2.1715 0.5097
v  -0.0161 2.1604 0.5097
v  -0.0050 2.1519 0.5097
v  0.0079 2.1466 0.5097
v  0.0218 2.1448 0.5097
v  0.0356 2.1466 0.5097
v  0.0485 2.1519 0.5097
v  0.0596 2.1604 0.5097
v  0.0681 2.1715 0.5097
v  0.0735 2.1844 0.5097
v  0.0606 2.2087 0.5740
v  0.0619 2.1983 0.5740
v  0.0565 2.2184 0.5740
v  0.0502 2.2267 0.5740
v  0.0418 2.2331 0.5740
v  0.0322 2.2371 0.5740
v  0.0218 2.2385 0.5740
v  0.0114 2.2371 0.5740
v  0.0017 2.2331 0.5740
v  -0.0066 2.2267 0.5740
v  -0.0130 2.2184 0.5740
v  -0.0170 2.2087 0.5740
v  -0.0184 2.1983 0.5740
v  -0.0170 2.1879 0.5740
v  -0.0130 2.1782 0.5740
v  -0.0066 2.1699 0.5740
v  0.0017 2.1635 0.5740
v  0.0114 2.1595 0.5740
v  0.0218 2.1581 0.5740
v  0.0322 2.1595 0.5740
v  0.0418 2.1635 0.5740
v  0.0502 2.1699 0.5740
v  0.0565 2.1782 0.5740
v  0.0606 2.1879 0.5740
v  0.0476 2.2052 0.6382
v  0.0485 2.1983 0.6382
v  0.0450 2.2117 0.6382
v  0.0407 2.2172 0.6382
v  0.0352 2.2215 0.6382
v  0.0287 2.2242 0.6382
v  0.0218 2.2251 0.6382
v  0.0148 2.2242 0.6382
v  0.0084 2.2215 0.6382
v  0.0028 2.2172 0.6382
v  -0.0014 2.2117 0.6382
v  -0.0041 2.2052 0.6382
v  -0.0050 2.1983 0.6382
v  -0.0041 2.1914 0.6382
v  -0.0014 2.1849 0.6382
v  0.0028 2.1794 0.6382
v  0.0084 2.1751 0.6382
v  0.0148 2.1724 0.6382
v  0.0218 2.1715 0.6382
v  0.0287 2.1724 0.6382
v  0.0352 2.1751 0.6382
v  0.0407 2.1794 0.6382
v  0.0450 2.1849 0.6382
v  0.0476 2.1914 0.6382
v  0.0347 2.2018 0.7025
v  0.0352 2.1983 0.7025
v  0.0334 2.2050 0.7025
v  0.0312 2.2078 0.7025
v  0.0285 2.2099 0.7025
v  0.0252 2.2112 0.7025
v  0.0218 2.2117 0.7025
v  0.0183 2.2112 0.7025
v  0.0151 2.2099 0.7025
v  0.0123 2.2078 0.7025
v  0.0102 2.2050 0.7025
v  0.0088 2.2018 0.7025
v  0.0084 2.1983 0.7025
v  0.0088 2.1948 0.7025
v  0.0102 2.1916 0.7025
v  0.0123 2.1888 0.7025
v  0.0151 2.1867 0.7025
v  0.0183 2.1854 0.7025
v  0.0218 2.1849 0.7025
v  0.0252 2.1854 0.7025
v  0.0285 2.1867 0.7025
v  0.0312 2.1888 0.7025
v  0.0334 2.1916 0.7025
v  0.0347 2.1948 0.7025
v  0.0218 2.1983 0.7668
# 122 vertices

vn 0.0000 0.0000 -1.0000
vn 0.9790 -0.0000 0.2040
vn 0.9456 0.2534 0.2040
vn 0.8478 0.4895 0.2040
vn 0.6922 0.6922 0.2040
vn 0.4895 0.8478 0.2040
vn 0.2534 0.9456 0.2040
vn 0.0000 0.9790 0.2040
vn -0.2534 0.9456 0.2040
vn -0.4895 0.8478 0.2040
vn -0.6922 0.6922 0.2040
vn -0.8478 0.4895 0.2040
vn -0.9456 0.2534 0.2040
vn -0.9790 0.0000 0.2040
vn -0.9456 -0.2534 0.2040
vn -0.8478 -0.4895 0.2040
vn -0.6922 -0.6922 0.2040
vn -0.4895 -0.8478 0.2040
vn -0.2534 -0.9456 0.2040
vn -0.0000 -0.9790 0.2040
vn 0.2534 -0.9456 0.2040
vn 0.4895 -0.8478 0.2040
vn 0.6922 -0.6922 0.2040
vn 0.8478 -0.4895 0.2040
vn 0.9456 -0.2534 0.2040
vn 0.9709 0.1278 0.2023
vn 0.9709 -0.1278 0.2023
vn 0.9048 0.3748 0.2023
vn 0.7770 0.5962 0.2023
vn 0.5962 0.7770 0.2023
vn 0.3748 0.9048 0.2023
vn 0.1278 0.9709 0.2023
vn -0.1278 0.9709 0.2023
vn -0.3748 0.9048 0.2023
vn -0.5962 0.7770 0.2023
vn -0.7770 0.5962 0.2023
vn -0.9048 0.3748 0.2023
vn -0.9709 0.1278 0.2023
vn -0.9709 -0.1278 0.2023
vn -0.9048 -0.3748 0.2023
vn -0.7770 -0.5962 0.2023
vn -0.5962 -0.7770 0.2023
vn -0.3748 -0.9048 0.2023
vn -0.1278 -0.9709 0.2023
vn 0.1278 -0.9709 0.2023
vn 0.3748 -0.9048 0.2023
vn 0.5962 -0.7770 0.2023
vn 0.7770 -0.5962 0.2023
vn 0.9048 -0.3748 0.2023
vn 1.0000 0.0000 -0.0000
# 50 vertex normals

vt 0.5000 0.0000 0.0000
vt 0.8333 0.0000 1.0000
vt 0.7917 0.0000 1.0000
vt 0.7500 0.0000 1.0000
vt 0.9167 0.0000 1.0000
vt 0.8750 0.0000 1.0000
vt 1.0000 0.0000 1.0000
vt 0.9583 0.0000 1.0000
vt 0.0833 0.0000 1.0000
vt 0.0417 0.0000 1.0000
vt -0.0000 0.0000 1.0000
vt 0.1667 0.0000 1.0000
vt 0.1250 0.0000 1.0000
vt 0.2500 0.0000 1.0000
vt 0.2083 0.0000 1.0000
vt 0.3333 0.0000 1.0000
vt 0.2917 0.0000 1.0000
vt 0.4167 0.0000 1.0000
vt 0.3750 0.0000 1.0000
vt 0.5000 0.0000 1.0000
vt 0.4583 0.0000 1.0000
vt 0.5833 0.0000 1.0000
vt 0.5417 0.0000 1.0000
vt 0.6667 0.0000 1.0000
vt 0.6250 0.0000 1.0000
vt 0.7083 0.0000 1.0000
vt 0.7917 0.2000 0.8000
vt 0.7500 0.2000 0.8000
vt 0.8333 0.2000 0.8000
vt 0.8750 0.2000 0.8000
vt 0.9167 0.2000 0.8000
vt 0.9583 0.2000 0.8000
vt 1.0000 0.2000 0.8000
vt 0.0417 0.2000 0.8000
vt -0.0000 0.2000 0.8000
vt 0.0833 0.2000 0.8000
vt 0.1250 0.2000 0.8000
vt 0.1667 0.2000 0.8000
vt 0.2083 0.2000 0.8000
vt 0.2500 0.2000 0.8000
vt 0.2917 0.2000 0.8000
vt 0.3333 0.2000 0.8000
vt 0.3750 0.2000 0.8000
vt 0.4167 0.2000 0.8000
vt 0.4583 0.2000 0.8000
vt 0.5000 0.2000 0.8000
vt 0.5417 0.2000 0.8000
vt 0.5833 0.2000 0.8000
vt 0.6250 0.2000 0.8000
vt 0.6667 0.2000 0.8000
vt 0.7083 0.2000 0.8000
vt 0.7917 0.4000 0.6000
vt 0.7500 0.4000 0.6000
vt 0.8333 0.4000 0.6000
vt 0.8750 0.4000 0.6000
vt 0.9167 0.4000 0.6000
vt 0.9583 0.4000 0.6000
vt 1.0000 0.4000 0.6000
vt 0.0417 0.4000 0.6000
vt -0.0000 0.4000 0.6000
vt 0.0833 0.4000 0.6000
vt 0.1250 0.4000 0.6000
vt 0.1667 0.4000 0.6000
vt 0.2083 0.4000 0.6000
vt 0.2500 0.4000 0.6000
vt 0.2917 0.4000 0.6000
vt 0.3333 0.4000 0.6000
vt 0.3750 0.4000 0.6000
vt 0.4167 0.4000 0.6000
vt 0.4583 0.4000 0.6000
vt 0.5000 0.4000 0.6000
vt 0.5417 0.4000 0.6000
vt 0.5833 0.4000 0.6000
vt 0.6250 0.4000 0.6000
vt 0.6667 0.4000 0.6000
vt 0.7083 0.4000 0.6000
vt 0.7917 0.6000 0.4000
vt 0.7500 0.6000 0.4000
vt 0.8333 0.6000 0.4000
vt 0.8750 0.6000 0.4000
vt 0.9167 0.6000 0.4000
vt 0.9583 0.6000 0.4000
vt 1.0000 0.6000 0.4000
vt 0.0417 0.6000 0.4000
vt -0.0000 0.6000 0.4000
vt 0.0833 0.6000 0.4000
vt 0.1250 0.6000 0.4000
vt 0.1667 0.6000 0.4000
vt 0.2083 0.6000 0.4000
vt 0.2500 0.6000 0.4000
vt 0.2917 0.6000 0.4000
vt 0.3333 0.6000 0.4000
vt 0.3750 0.6000 0.4000
vt 0.4167 0.6000 0.4000
vt 0.4583 0.6000 0.4000
vt 0.5000 0.6000 0.4000
vt 0.5417 0.6000 0.4000
vt 0.5833 0.6000 0.4000
vt 0.6250 0.6000 0.4000
vt 0.6667 0.6000 0.4000
vt 0.7083 0.6000 0.4000
vt 0.7917 0.8000 0.2000
vt 0.7500 0.8000 0.2000
vt 0.8333 0.8000 0.2000
vt 0.8750 0.8000 0.2000
vt 0.9167 0.8000 0.2000
vt 0.9583 0.8000 0.2000
vt 1.0000 0.8000 0.2000
vt 0.0417 0.8000 0.2000
vt -0.0000 0.8000 0.2000
vt 0.0833 0.8000 0.2000
vt 0.1250 0.8000 0.2000
vt 0.1667 0.8000 0.2000
vt 0.2083 0.8000 0.2000
vt 0.2500 0.8000 0.2000
vt 0.2917 0.8000 0.2000
vt 0.3333 0.8000 0.2000
vt 0.3750 0.8000 0.2000
vt 0.4167 0.8000 0.2000
vt 0.4583 0.8000 0.2000
vt 0.5000 0.8000 0.2000
vt 0.5417 0.8000 0.2000
vt 0.5833 0.8000 0.2000
vt 0.6250 0.8000 0.2000
vt 0.6667 0.8000 0.2000
vt 0.7083 0.8000 0.2000
vt 0.5000 1.0000 0.0000
# 127 texture coords

g Cone001
usemtl wire_135059008
s 1
f 1/1/1 2/2/1 3/3/1 4/4/1 
f 1/1/1 5/5/1 6/6/1 2/2/1 
f 1/1/1 7/7/1 8/8/1 5/5/1 
f 1/1/1 9/9/1 10/10/1 7/11/1 
f 1/1/1 11/12/1 12/13/1 9/9/1 
f 1/1/1 13/14/1 14/15/1 11/12/1 
f 1/1/1 15/16/1 16/17/1 13/14/1 
f 1/1/1 17/18/1 18/19/1 15/16/1 
f 1/1/1 19/20/1 20/21/1 17/18/1 
f 1/1/1 21/22/1 22/23/1 19/20/1 
f 1/1/1 23/24/1 24/25/1 21/22/1 
f 1/1/1 4/4/1 25/26/1 23/24/1 
s 8
f 4/4/2 3/3/3 26/27/3 27/28/2 
f 3/3/3 2/2/4 28/29/4 26/27/3 
f 2/2/4 6/6/5 29/30/5 28/29/4 
f 6/6/5 5/5/6 30/31/6 29/30/5 
f 5/5/6 8/8/7 31/32/7 30/31/6 
f 8/8/7 7/7/8 32/33/8 31/32/7 
f 7/11/8 10/10/9 33/34/9 32/35/8 
f 10/10/9 9/9/10 34/36/10 33/34/9 
f 9/9/10 12/13/11 35/37/11 34/36/10 
f 12/13/11 11/12/12 36/38/12 35/37/11 
f 11/12/12 14/15/13 37/39/13 36/38/12 
f 14/15/13 13/14/14 38/40/14 37/39/13 
f 13/14/14 16/17/15 39/41/15 38/40/14 
f 16/17/15 15/16/16 40/42/16 39/41/15 
f 15/16/16 18/19/17 41/43/17 40/42/16 
f 18/19/17 17/18/18 42/44/18 41/43/17 
f 17/18/18 20/21/19 43/45/19 42/44/18 
f 20/21/19 19/20/20 44/46/20 43/45/19 
f 19/20/20 22/23/21 45/47/21 44/46/20 
f 22/23/21 21/22/22 46/48/22 45/47/21 
f 21/22/22 24/25/23 47/49/23 46/48/22 
f 24/25/23 23/24/24 48/50/24 47/49/23 
f 23/24/24 25/26/25 49/51/25 48/50/24 
f 25/26/25 4/4/2 27/28/2 49/51/25 
f 27/28/2 26/27/3 50/52/3 51/53/2 
f 26/27/3 28/29/4 52/54/4 50/52/3 
f 28/29/4 29/30/5 53/55/5 52/54/4 
f 29/30/5 30/31/6 54/56/6 53/55/5 
f 30/31/6 31/32/7 55/57/7 54/56/6 
f 31/32/7 32/33/8 56/58/8 55/57/7 
f 32/35/8 33/34/9 57/59/9 56/60/8 
f 33/34/9 34/36/10 58/61/10 57/59/9 
f 34/36/10 35/37/11 59/62/11 58/61/10 
f 35/37/11 36/38/12 60/63/12 59/62/11 
f 36/38/12 37/39/13 61/64/13 60/63/12 
f 37/39/13 38/40/14 62/65/14 61/64/13 
f 38/40/14 39/41/15 63/66/15 62/65/14 
f 39/41/15 40/42/16 64/67/16 63/66/15 
f 40/42/16 41/43/17 65/68/17 64/67/16 
f 41/43/17 42/44/18 66/69/18 65/68/17 
f 42/44/18 43/45/19 67/70/19 66/69/18 
f 43/45/19 44/46/20 68/71/20 67/70/19 
f 44/46/20 45/47/21 69/72/21 68/71/20 
f 45/47/21 46/48/22 70/73/22 69/72/21 
f 46/48/22 47/49/23 71/74/23 70/73/22 
f 47/49/23 48/50/24 72/75/24 71/74/23 
f 48/50/24 49/51/25 73/76/25 72/75/24 
f 49/51/25 27/28/2 51/53/2 73/76/25 
f 51/53/2 50/52/3 74/77/3 75/78/2 
f 50/52/3 52/54/4 76/79/4 74/77/3 
f 52/54/4 53/55/5 77/80/5 76/79/4 
f 53/55/5 54/56/6 78/81/6 77/80/5 
f 54/56/6 55/57/7 79/82/7 78/81/6 
f 55/57/7 56/58/8 80/83/8 79/82/7 
f 56/60/8 57/59/9 81/84/9 80/85/8 
f 57/59/9 58/61/10 82/86/10 81/84/9 
f 58/61/10 59/62/11 83/87/11 82/86/10 
f 59/62/11 60/63/12 84/88/12 83/87/11 
f 60/63/12 61/64/13 85/89/13 84/88/12 
f 61/64/13 62/65/14 86/90/14 85/89/13 
f 62/65/14 63/66/15 87/91/15 86/90/14 
f 63/66/15 64/67/16 88/92/16 87/91/15 
f 64/67/16 65/68/17 89/93/17 88/92/16 
f 65/68/17 66/69/18 90/94/18 89/93/17 
f 66/69/18 67/70/19 91/95/19 90/94/18 
f 67/70/19 68/71/20 92/96/20 91/95/19 
f 68/71/20 69/72/21 93/97/21 92/96/20 
f 69/72/21 70/73/22 94/98/22 93/97/21 
f 70/73/22 71/74/23 95/99/23 94/98/22 
f 71/74/23 72/75/24 96/100/24 95/99/23 
f 72/75/24 73/76/25 97/101/25 96/100/24 
f 73/76/25 51/53/2 75/78/2 97/101/25 
f 75/78/2 74/77/3 98/102/3 99/103/2 
f 74/77/3 76/79/4 100/104/4 98/102/3 
f 76/79/4 77/80/5 101/105/5 100/104/4 
f 77/80/5 78/81/6 102/106/6 101/105/5 
f 78/81/6 79/82/7 103/107/7 102/106/6 
f 79/82/7 80/83/8 104/108/8 103/107/7 
f 80/85/8 81/84/9 105/109/9 104/110/8 
f 81/84/9 82/86/10 106/111/10 105/109/9 
f 82/86/10 83/87/11 107/112/11 106/111/10 
f 83/87/11 84/88/12 108/113/12 107/112/11 
f 84/88/12 85/89/13 109/114/13 108/113/12 
f 85/89/13 86/90/14 110/115/14 109/114/13 
f 86/90/14 87/91/15 111/116/15 110/115/14 
f 87/91/15 88/92/16 112/117/16 111/116/15 
f 88/92/16 89/93/17 113/118/17 112/117/16 
f 89/93/17 90/94/18 114/119/18 113/118/17 
f 90/94/18 91/95/19 115/120/19 114/119/18 
f 91/95/19 92/96/20 116/121/20 115/120/19 
f 92/96/20 93/97/21 117/122/21 116/121/20 
f 93/97/21 94/98/22 118/123/22 117/122/21 
f 94/98/22 95/99/23 119/124/23 118/123/22 
f 95/99/23 96/100/24 120/125/24 119/124/23 
f 96/100/24 97/101/25 121/126/25 120/125/24 
f 97/101/25 75/78/2 99/103/2 121/126/25 
f 99/103/2 98/102/3 122/127/26 122/127/27 
f 98/102/3 100/104/4 122/127/28 122/127/26 
f 100/104/4 101/105/5 122/127/29 122/127/28 
f 101/105/5 102/106/6 122/127/30 122/127/29 
f 102/106/6 103/107/7 122/127/31 122/127/30 
f 103/107/7 104/108/8 122/127/32 122/127/31 
f 104/110/8 105/109/9 122/127/33 122/127/32 
f 105/109/9 106/111/10 122/127/34 122/127/33 
f 106/111/10 107/112/11 122/127/35 122/127/34 
f 107/112/11 108/113/12 122/127/36 122/127/35 
f 108/113/12 109/114/13 122/127/37 122/127/36 
f 109/114/13 110/115/14 122/127/38 122/127/37 
f 110/115/14 111/116/15 122/127/39 122/127/38 
f 111/116/15 112/117/16 122/127/40 122/127/39 
f 112/117/16 113/118/17 122/127/41 122/127/40 
f 113/118/17 114/119/18 122/127/42 122/127/41 
f 114/119/18 115/120/19 122/127/43 122/127/42 
f 115/120/19 116/121/20 122/127/44 122/127/43 
f 116/121/20 117/122/21 122/127/45 122/127/44 
f 117/122/21 118/123/22 122/127/46 122/127/45 
f 118/123/22 119/124/23 122/127/47 122/127/46 
f 119/124/23 120/125/24 122/127/48 122/127/47 
f 120/125/24 121/126/25 122/127/49 122/127/48 
f 121/126/25 99/103/2 122/127/27 122/127/49 
s 1
f 122/127/50 122/127/50 122/127/50 122/127/50 
f 122/127/50 122/127/50 122/127/50 122/127/50 
f 122/127/50 122/127/50 122/127/50 122/127/50 
f 122/127/50 122/127/50 122/127/50 122/127/50 
f 122/127/50 122/127/50 122/127/50 122/127/50 
f 122/127/50 122/127/50 122/127/50 122/127/50 
f 122/127/50 122/127/50 122/127/50 122/127/50 
f 122/127/50 122/127/50 122/127/50 122/127/50 
f 122/127/50 122/127/50 122/127/50 122/127/50 
f 122/127/50 122/127/50 122/127/50 122/127/50 
f 122/127/50 122/127/50 122/127/50 122/127/50 
f 122/127/50 122/127/50 122/127/50 122/127/50 
# 144 polygons

